HIERARCHY
ROOT Hips
{
	OFFSET 0.000000 0.000000 0.000000
	CHANNELS 6 Xposition Yposition Zposition Zrotation Yrotation Xrotation 
	JOINT LeftUpLeg_virtual
	{
		OFFSET 0.000000 0.000000 0.000000
		CHANNELS 3 Zrotation Yrotation Xrotation
		JOINT LeftUpLeg
		{
			OFFSET 10.205400 -3.823500 0.155100
			CHANNELS 3 Zrotation Yrotation Xrotation
			JOINT LeftLeg
			{
				OFFSET 0.708757 -12.982077 0.567790
				CHANNELS 3 Zrotation Yrotation Xrotation
				JOINT LeftFoot
				{
					OFFSET -0.708756 -10.717838 -2.184338
					CHANNELS 3 Zrotation Yrotation Xrotation
					JOINT LeftToeBase
					{
						OFFSET 0.108149 -7.191104 7.560241
						CHANNELS 3 Zrotation Yrotation Xrotation
						End Site
						{
							OFFSET 0.000000 0.000000 0.000000
						}
					}
				}
			}
		}
	}
	JOINT RightUpLeg_virtual
	{
		OFFSET 0.000000 0.000000 0.000000
		CHANNELS 3 Zrotation Yrotation Xrotation
		JOINT RightUpLeg
		{
			OFFSET -10.205400 -3.823500 0.005500
			CHANNELS 3 Zrotation Yrotation Xrotation
			JOINT RightLeg
			{
				OFFSET -0.708756 -12.982134 0.610632
				CHANNELS 3 Zrotation Yrotation Xrotation
				JOINT RightFoot
				{
					OFFSET 0.708754 -10.717769 -1.945823
					CHANNELS 3 Zrotation Yrotation Xrotation
					JOINT RightToeBase
					{
						OFFSET -0.108140 -7.191069 7.372968
						CHANNELS 3 Zrotation Yrotation Xrotation
						End Site
						{
							OFFSET 0.000000 0.000000 0.000000
						}
					}
				}
			}
		}
	}
	JOINT Spine_virtual
	{
		OFFSET 0.000000 0.000000 0.000000
		CHANNELS 3 Zrotation Yrotation Xrotation
		JOINT Spine
		{
			OFFSET 0.000000 6.876099 0.125700
			CHANNELS 3 Zrotation Yrotation Xrotation
			JOINT Spine1
			{
				OFFSET 0.000000 8.022060 0.146608
				CHANNELS 3 Zrotation Yrotation Xrotation
				JOINT Spine2
				{
					OFFSET 0.000000 9.168068 0.167552
					CHANNELS 3 Zrotation Yrotation Xrotation
					JOINT Neck_virtual
					{
						OFFSET 0.000000 0.000000 0.000000
						CHANNELS 3 Zrotation Yrotation Xrotation
						JOINT Neck
						{
							OFFSET 0.000000 10.314075 0.188496
							CHANNELS 3 Zrotation Yrotation Xrotation
							JOINT Head
							{
								OFFSET 0.000000 7.643700 -2.377400
								CHANNELS 3 Zrotation Yrotation Xrotation
								End Site
								{
									OFFSET 0.000000 0.000000 0.000000
								}
							}
						}
					}
					JOINT LeftShoulder_virtual
					{
						OFFSET 0.000000 0.000000 0.000000
						CHANNELS 3 Zrotation Yrotation Xrotation
						JOINT LeftShoulder
						{
							OFFSET 4.392200 8.824978 0.174984
							CHANNELS 3 Zrotation Yrotation Xrotation
							JOINT LeftArm
							{
								OFFSET 8.771219 -2.981674 -0.026999
								CHANNELS 3 Zrotation Yrotation Xrotation
								JOINT LeftForeArm
								{
									OFFSET 8.512804 0.000000 -0.000000
									CHANNELS 3 Zrotation Yrotation Xrotation
									JOINT LeftHand
									{
										OFFSET 18.484802 0.000000 -0.000000
										CHANNELS 3 Zrotation Yrotation Xrotation
										End Site
										{
											OFFSET 0.000000 0.000000 0.000000
										}
									}
								}
							}
						}
					}
					JOINT RightShoulder_virtual
					{
						OFFSET 0.000000 0.000000 0.000000
						CHANNELS 3 Zrotation Yrotation Xrotation
						JOINT RightShoulder
						{
							OFFSET -4.392200 8.824993 0.141379
							CHANNELS 3 Zrotation Yrotation Xrotation
							JOINT RightArm
							{
								OFFSET -8.771282 -2.981682 -0.094208
								CHANNELS 3 Zrotation Yrotation Xrotation
								JOINT RightForeArm
								{
									OFFSET -8.494598 0.000000 0.000000
									CHANNELS 3 Zrotation Yrotation Xrotation
									JOINT RightHand
									{
										OFFSET -18.483803 0.000000 0.000001
										CHANNELS 3 Zrotation Yrotation Xrotation
										End Site
										{
											OFFSET 0.000000 0.000000 0.000000
										}
									}
								}
							}
						}
					}
				}
			}
		}
	}
}
MOTION
Frames: 14
Frame Time: 0.033333
3.472785 3.954583 14.026347 179.970717 2.959419 -179.932318 15.671698 -5.321108 -61.871747 1.538586 6.255617 -39.497157 21.409868 0.087212 22.296615 -15.536858 -4.433567 12.498330 0.000000 0.000000 0.000000 8.277660 4.169654 -64.324338 0.701548 -7.431790 -38.891387 -1.196458 8.987753 23.282189 11.630929 13.759653 20.087274 0.000000 0.000000 0.000000 1.022666 1.648662 -51.177549 -2.139790 1.957989 -3.292354 -1.900355 -0.308811 9.802962 -0.006385 0.007973 -0.002066 -2.366040 -0.036925 11.734481 -4.787951 -13.783414 54.347498 0.000000 0.000000 0.000000 1.498399 0.753394 4.767423 -3.740131 -4.639817 9.574799 -53.505998 54.310761 -4.184709 -63.348065 -80.497358 68.418196 0.000000 0.000000 0.000000 -4.631097 2.036177 3.970918 17.018639 12.061778 13.890991 115.406483 -57.408341 -45.722403 -150.866639 77.096710 -149.746789 0.000000 0.000000 0.000000 
3.437514 3.951502 13.994100 179.975102 2.898708 -179.917264 15.781666 -5.397066 -61.895605 1.625185 6.152658 -39.664715 21.422538 0.335466 22.762312 -15.578405 -4.502018 12.132326 0.000000 0.000000 0.000000 8.473523 3.970525 -64.440219 0.621659 -7.329956 -38.823127 -1.129557 8.688254 23.179717 11.850213 13.816143 20.239932 0.000000 0.000000 0.000000 1.130529 1.530187 -51.059988 -2.091951 1.910589 -3.408511 -1.957783 -0.332820 9.826532 -0.015053 -0.085156 0.000103 -2.426567 0.085729 11.693374 -4.864005 -13.678559 54.330436 0.000000 0.000000 0.000000 1.436699 0.950047 4.677362 -3.748769 -4.560302 9.655832 -53.256679 54.274018 -3.893113 -62.481041 -80.448707 67.595773 0.000000 0.000000 0.000000 -4.688994 2.220446 3.988396 16.971823 12.303207 14.027056 115.601771 -57.383500 -45.871643 -150.405519 77.126824 -149.289521 0.000000 0.000000 0.000000 
3.403695 3.938387 13.982515 -179.997628 2.910450 179.942386 15.891171 -5.388651 -61.847493 1.356435 6.307318 -39.634010 21.505262 0.045938 22.778546 -15.606557 -4.589424 12.093965 0.000000 0.000000 0.000000 8.708605 3.829312 -64.498194 0.453777 -7.181367 -38.593222 -1.054969 8.328118 23.044635 11.956104 13.821422 20.532146 0.000000 0.000000 0.000000 1.121357 1.579950 -50.852852 -2.047533 1.934738 -3.430678 -1.981755 -0.255703 9.854853 0.001723 0.004905 -0.021442 -2.401738 0.023777 11.710289 -4.854099 -13.831854 54.324917 0.000000 0.000000 0.000000 1.439210 0.835860 4.779890 -3.745929 -4.811453 9.579513 -53.157703 54.163533 -3.787032 -61.621318 -80.374429 66.777434 0.000000 0.000000 0.000000 -4.721536 2.053294 3.978945 16.932059 12.225841 14.102103 115.742200 -57.463980 -45.959506 -150.215148 77.156863 -149.072458 0.000000 0.000000 0.000000 
3.377829 3.918343 13.998741 179.959188 3.037108 179.849864 15.848163 -5.306284 -61.876671 1.079415 6.582102 -39.516678 21.669265 0.061276 22.619899 -15.626933 -4.707082 12.260584 0.000000 0.000000 0.000000 8.750703 3.973247 -64.564972 0.327678 -7.432989 -38.481388 -1.057871 7.925712 23.090284 12.046603 14.265840 20.590048 0.000000 0.000000 0.000000 1.212918 1.592987 -50.746253 -2.018574 1.846389 -3.430233 -2.028142 -0.232848 9.873086 -0.022464 0.016703 -0.012153 -2.426309 0.072207 11.668633 -4.897781 -13.741537 54.306978 0.000000 0.000000 0.000000 1.409143 0.889387 4.683313 -3.712381 -4.829617 9.613449 -53.285130 54.096396 -3.875029 -61.455959 -80.348563 66.661437 0.000000 0.000000 0.000000 -4.744866 2.169673 3.946368 16.913321 12.317332 14.251352 115.719442 -57.401231 -45.932042 -150.535839 77.175523 -149.381264 0.000000 0.000000 0.000000 
3.369747 3.897248 14.021043 179.876119 3.141396 179.849987 15.742526 -5.188923 -61.956120 0.903381 6.763693 -39.417394 21.774325 0.006431 22.359159 -15.649353 -4.884708 12.455681 0.000000 0.000000 0.000000 8.586946 4.153294 -64.631027 0.171146 -7.597192 -38.484168 -1.062020 7.579961 23.155917 12.217662 14.191150 20.687823 0.000000 0.000000 0.000000 1.181403 1.672909 -50.768506 -2.073482 1.787619 -3.450050 -2.055251 -0.183333 9.889433 -0.019049 0.046655 -0.043075 -2.418322 0.063881 11.714970 -4.923216 -13.700967 54.277041 0.000000 0.000000 0.000000 1.403239 0.885178 4.716872 -3.614016 -4.965618 9.549067 -53.527448 54.165272 -4.027867 -61.383648 -80.398170 66.657408 0.000000 0.000000 0.000000 -4.732982 2.189567 3.932757 16.868740 12.269188 14.266830 115.692913 -57.405821 -45.681917 -150.549281 77.123470 -149.403421 0.000000 0.000000 0.000000 
3.387115 3.879267 14.037364 -179.986290 3.253994 179.861502 15.808878 -5.059729 -62.029708 0.642006 6.972766 -39.331764 21.794876 -0.539083 21.923304 -15.534794 -4.923749 12.622993 0.000000 0.000000 0.000000 8.638378 4.337763 -64.685798 0.046118 -7.495270 -38.469900 -1.168338 7.201292 23.324912 12.258730 14.256370 20.788637 0.000000 0.000000 0.000000 1.125127 1.845182 -50.832197 -2.108884 1.586148 -3.454491 -2.045857 -0.234732 9.896334 0.010082 0.021187 -0.005952 -2.484570 0.105828 11.716966 -5.059795 -13.744853 54.282689 0.000000 0.000000 0.000000 1.348295 0.913092 4.698763 -3.454460 -5.058502 9.532844 -53.999004 54.393537 -4.461422 -62.096337 -80.440559 67.485787 0.000000 0.000000 0.000000 -4.817399 2.185592 3.935016 16.808452 12.337998 14.329920 115.509987 -57.322287 -45.339503 -150.772806 77.093971 -149.641713 0.000000 0.000000 0.000000 
3.413909 3.865087 14.039038 179.972233 3.426400 -179.995811 15.736387 -4.872043 -62.217723 0.431427 7.173751 -39.230530 21.901657 -1.154570 21.649729 -15.451500 -4.976209 12.608848 0.000000 0.000000 0.000000 8.425106 4.596511 -64.805723 0.024380 -7.359947 -38.523978 -1.277067 7.018748 23.494541 12.285917 14.109719 20.781122 0.000000 0.000000 0.000000 1.066079 1.937750 -51.013710 -2.235793 1.494880 -3.529379 -2.049039 -0.222076 9.885124 0.005327 0.018729 -0.005272 -2.483881 0.188417 11.746653 -5.022700 -13.531467 54.205781 0.000000 0.000000 0.000000 1.347847 0.910243 4.713832 -3.276493 -5.165878 9.517563 -54.643518 54.698450 -5.067884 -63.407474 -80.563761 68.926116 0.000000 0.000000 0.000000 -4.825802 2.193505 3.930425 16.701621 12.421378 14.379775 115.205511 -57.258408 -44.802930 -151.084140 77.088343 -149.981132 0.000000 0.000000 0.000000 
3.445856 3.862019 14.019073 179.880203 3.604372 -179.906308 15.624049 -4.698882 -62.159339 0.242735 7.364694 -39.299672 22.043739 -1.746316 21.483088 -15.524866 -5.026593 12.513595 0.000000 0.000000 0.000000 8.283002 4.812471 -64.959593 0.033770 -7.074052 -38.527721 -1.783574 6.601597 23.717405 11.198787 13.254232 20.669438 0.000000 0.000000 0.000000 1.026668 2.035908 -51.156819 -2.416883 1.394902 -3.646965 -2.074471 -0.197005 9.888306 0.008671 0.026659 0.009523 -2.478670 0.124759 11.728846 -5.129407 -13.347567 54.150826 0.000000 0.000000 0.000000 1.397643 0.934850 4.703575 -3.049696 -5.255007 9.461992 -55.542245 55.169531 -5.830660 -64.950120 -80.732317 70.523042 0.000000 0.000000 0.000000 -4.782037 2.219378 3.928860 16.603095 12.567906 14.433674 114.805890 -57.186818 -44.161073 -151.408587 77.123211 -150.340783 0.000000 0.000000 0.000000 
3.486056 3.860164 13.982836 179.884507 3.940464 -179.959884 15.558565 -4.321134 -62.048819 0.137276 7.497519 -39.288078 22.116325 -1.890029 21.375944 -15.688716 -5.157208 12.389315 0.000000 0.000000 0.000000 8.186161 5.260969 -64.864818 0.057930 -6.845148 -38.606569 -2.243902 6.092142 24.257039 10.067804 12.362921 20.480416 0.000000 0.000000 0.000000 1.004684 2.308233 -51.111101 -2.549394 1.298167 -3.721254 -2.054777 -0.193680 9.858525 0.001056 0.020753 -0.004877 -2.486735 0.150890 11.708023 -5.287612 -13.270171 54.086451 0.000000 0.000000 0.000000 1.411844 0.958130 4.691520 -2.859306 -5.336648 9.431778 -56.464296 55.685395 -6.731562 -66.801736 -80.823753 72.438678 0.000000 0.000000 0.000000 -4.774587 2.238201 3.931901 16.437204 12.777999 14.521512 114.269898 -57.124267 -43.427719 -151.674309 77.151344 -150.645081 0.000000 0.000000 0.000000 
3.527222 3.866248 13.945601 179.927250 4.201655 -179.808295 15.483472 -3.915774 -61.998809 0.290625 7.424276 -39.349201 22.020470 -1.368110 21.407845 -15.915191 -5.330141 12.437563 0.000000 0.000000 0.000000 7.984102 5.510982 -64.836575 0.016165 -6.588187 -38.610803 -2.685705 5.602788 24.404776 9.112435 11.678153 20.732961 0.000000 0.000000 0.000000 0.995779 2.480740 -51.161723 -2.626691 1.180931 -3.889653 -2.015664 -0.177455 9.875942 -0.016145 0.037239 -0.007021 -2.508791 0.150411 11.706427 -5.276255 -13.004843 53.978794 0.000000 0.000000 0.000000 1.387683 0.985184 4.760409 -2.635923 -5.451145 9.412291 -57.532193 56.114720 -7.687221 -67.868216 -80.998373 73.578582 0.000000 0.000000 0.000000 -4.760283 2.254839 3.943318 16.338671 12.938415 14.502360 113.709023 -57.133791 -42.620715 -151.764331 77.150286 -150.760512 0.000000 0.000000 0.000000 
3.558108 3.871356 13.913781 179.951169 4.387999 -179.887143 15.327913 -3.632351 -61.837179 0.170051 7.851519 -39.476926 21.890183 -1.245714 21.389046 -16.195287 -5.461592 12.420947 0.000000 0.000000 0.000000 7.935050 5.801016 -64.702081 -0.081992 -6.415536 -38.766853 -2.789621 5.403947 24.913352 8.995899 11.723649 20.072457 0.000000 0.000000 0.000000 0.931361 2.697511 -51.067122 -2.704652 1.053821 -3.937056 -1.996687 -0.191463 9.892819 -0.039420 0.025463 0.015823 -2.469069 0.142249 11.649601 -5.345138 -12.774540 53.810443 0.000000 0.000000 0.000000 1.461693 0.992540 4.741039 -2.448509 -5.544620 9.351159 -58.505208 56.540381 -8.549595 -68.997157 -81.100642 74.770129 0.000000 0.000000 0.000000 -4.697466 2.279351 3.936480 16.210815 13.105754 14.581988 113.237604 -57.134112 -41.999906 -152.037538 77.186854 -151.061901 0.000000 0.000000 0.000000 
3.574941 3.874789 13.904020 179.950431 4.529462 -179.889943 15.231074 -3.510053 -61.757826 0.262972 7.970411 -39.606874 21.854751 -0.953522 21.471852 -16.452165 -5.606516 12.477305 0.000000 0.000000 0.000000 7.903903 5.877615 -64.633438 -0.151252 -6.321477 -38.790465 -2.820726 4.987842 24.975516 8.950539 11.743679 20.093800 0.000000 0.000000 0.000000 0.886581 2.767122 -51.062388 -2.766037 0.934826 -3.964923 -1.963873 -0.212208 9.917705 -0.022128 0.009819 -0.019797 -2.456046 0.163523 11.709448 -5.460507 -12.688041 53.689894 0.000000 0.000000 0.000000 1.464938 1.016675 4.842716 -2.331172 -5.641079 9.247395 -59.183316 56.824401 -9.076103 -69.634748 -81.179687 75.567355 0.000000 0.000000 0.000000 -4.683961 2.313885 4.019239 16.146574 13.252877 14.608689 112.891279 -57.068426 -41.624693 -152.386506 77.219448 -151.442615 0.000000 0.000000 0.000000 
3.565115 3.867797 13.915157 179.940268 4.636826 179.998038 15.258489 -3.549435 -61.632499 0.346443 8.029468 -39.661211 22.062343 -0.819350 21.692717 -16.616424 -5.647521 12.490936 0.000000 0.000000 0.000000 7.981307 5.893404 -64.631532 -0.113579 -6.503163 -38.740939 -2.571142 4.603329 24.997896 8.969877 11.588970 20.402921 0.000000 0.000000 0.000000 0.931368 2.714522 -51.008389 -2.767659 0.888674 -3.893706 -1.948744 -0.200181 9.941001 -0.011599 0.020080 0.015677 -2.462300 0.186881 11.675840 -5.544582 -12.560657 53.540726 0.000000 0.000000 0.000000 1.478027 1.046163 4.783292 -2.230626 -5.716073 9.191739 -59.680567 57.003003 -9.472817 -70.326537 -81.154914 76.170311 0.000000 0.000000 0.000000 -4.697949 2.328401 4.004471 16.091526 13.418173 14.630689 112.718707 -57.075205 -41.456301 -152.421832 77.234154 -151.494989 0.000000 0.000000 0.000000 
3.540466 3.866678 13.935504 179.900503 4.673989 179.881037 15.282733 -3.746842 -61.598013 0.356855 7.937225 -39.724998 22.293666 -1.305429 21.958601 -16.512276 -5.526334 12.303769 0.000000 0.000000 0.000000 8.066722 5.696614 -64.742407 -0.046987 -6.998441 -38.513234 -2.230715 4.212379 24.681664 9.152501 11.746660 21.171461 0.000000 0.000000 0.000000 0.929337 2.618130 -50.992242 -2.748739 0.868365 -3.795163 -1.960381 -0.194190 10.017721 -0.042663 0.001256 -0.000947 -2.393497 0.179031 11.717151 -5.710222 -12.630016 53.404696 0.000000 0.000000 0.000000 1.544988 1.070547 4.859587 -2.206859 -5.817542 9.130796 -59.944916 57.086485 -9.440264 -70.487928 -81.163773 76.363386 0.000000 0.000000 0.000000 -4.654980 2.334625 4.055064 16.087399 13.511163 14.714218 112.594842 -57.046768 -41.328290 -152.172517 77.264001 -151.255222 0.000000 0.000000 0.000000 
